<svg xmlns="http://www.w3.org/2000/svg" width="64" height="64" viewBox="0 0 48 48"><defs><clipPath id="a"><path d="M4.387 3.797h39.156v39.226H4.387zm0 0"/></clipPath><clipPath id="b"><path d="M4.555 23.27c0 3.418.894 6.757 2.597 9.699l-2.761 10.05 10.32-2.695a19.512 19.512 0 0 0 9.3 2.36h.009c10.73 0 19.46-8.704 19.464-19.399.004-5.183-2.02-10.058-5.695-13.726C34.113 5.89 29.227 3.87 24.02 3.87c-10.726 0-19.46 8.703-19.464 19.399M24.02 42.684"/></clipPath><clipPath id="d"><path d="M3.613 3.121H44.22v40.676H3.613zm0 0"/></clipPath><clipPath id="e"><path d="M3.86 23.262c0 3.543.93 7 2.69 10.047L3.692 43.723 14.38 40.93a20.183 20.183 0 0 0 9.637 2.445h.007c11.114 0 20.16-9.016 20.165-20.098a19.953 19.953 0 0 0-5.899-14.215c-3.809-3.8-8.871-5.89-14.266-5.894-11.113 0-20.16 9.016-20.164 20.094m6.368 9.523l-.399-.633a16.585 16.585 0 0 1-2.562-8.886c.004-9.211 7.52-16.703 16.765-16.703 4.477 0 8.684 1.742 11.848 4.898a16.559 16.559 0 0 1 4.902 11.816c-.004 9.211-7.52 16.703-16.758 16.703h-.003c-3.012 0-5.961-.804-8.532-2.328l-.613-.363-6.344 1.66zm13.796 10.59"/></clipPath><linearGradient id="c" gradientUnits="userSpaceOnUse" x1="0" y1="0" x2="1" y2="0" gradientTransform="matrix(0 -39.15149 39.26977 0 23.94 43.021)"><stop offset="0" stop-color="#20b038"/><stop offset=".008" stop-color="#20b038"/><stop offset=".016" stop-color="#21b039"/><stop offset=".023" stop-color="#21b139"/><stop offset=".031" stop-color="#22b139"/><stop offset=".039" stop-color="#22b13a"/><stop offset=".047" stop-color="#23b23a"/><stop offset=".055" stop-color="#23b23b"/><stop offset=".063" stop-color="#24b23b"/><stop offset=".07" stop-color="#24b33b"/><stop offset=".078" stop-color="#25b33c"/><stop offset=".086" stop-color="#25b33c"/><stop offset=".094" stop-color="#26b33c"/><stop offset=".102" stop-color="#26b43d"/><stop offset=".109" stop-color="#27b43d"/><stop offset=".117" stop-color="#27b43e"/><stop offset=".125" stop-color="#28b53e"/><stop offset=".133" stop-color="#28b53e"/><stop offset=".141" stop-color="#29b53f"/><stop offset=".148" stop-color="#29b53f"/><stop offset=".156" stop-color="#2ab640"/><stop offset=".164" stop-color="#2ab640"/><stop offset=".172" stop-color="#2bb640"/><stop offset=".18" stop-color="#2bb741"/><stop offset=".188" stop-color="#2cb741"/><stop offset=".195" stop-color="#2cb742"/><stop offset=".203" stop-color="#2db842"/><stop offset=".211" stop-color="#2db842"/><stop offset=".219" stop-color="#2eb843"/><stop offset=".227" stop-color="#2eb843"/><stop offset=".234" stop-color="#2fb944"/><stop offset=".242" stop-color="#2fb944"/><stop offset=".25" stop-color="#30b944"/><stop offset=".258" stop-color="#30ba45"/><stop offset=".266" stop-color="#31ba45"/><stop offset=".273" stop-color="#31ba45"/><stop offset=".281" stop-color="#32bb46"/><stop offset=".289" stop-color="#32bb46"/><stop offset=".297" stop-color="#33bb47"/><stop offset=".305" stop-color="#33bb47"/><stop offset=".313" stop-color="#34bc47"/><stop offset=".32" stop-color="#34bc48"/><stop offset=".328" stop-color="#35bc48"/><stop offset=".336" stop-color="#35bd49"/><stop offset=".344" stop-color="#36bd49"/><stop offset=".352" stop-color="#36bd49"/><stop offset=".359" stop-color="#37be4a"/><stop offset=".367" stop-color="#37be4a"/><stop offset=".375" stop-color="#38be4b"/><stop offset=".383" stop-color="#38be4b"/><stop offset=".391" stop-color="#39bf4b"/><stop offset=".398" stop-color="#39bf4c"/><stop offset=".406" stop-color="#3abf4c"/><stop offset=".414" stop-color="#3ac04d"/><stop offset=".422" stop-color="#3bc04d"/><stop offset=".43" stop-color="#3bc04d"/><stop offset=".438" stop-color="#3cc04e"/><stop offset=".445" stop-color="#3cc14e"/><stop offset=".453" stop-color="#3dc14e"/><stop offset=".461" stop-color="#3dc14f"/><stop offset=".469" stop-color="#3ec24f"/><stop offset=".477" stop-color="#3ec250"/><stop offset=".484" stop-color="#3fc250"/><stop offset=".492" stop-color="#3fc350"/><stop offset=".5" stop-color="#40c351"/><stop offset=".508" stop-color="#40c351"/><stop offset=".516" stop-color="#41c352"/><stop offset=".523" stop-color="#41c452"/><stop offset=".531" stop-color="#42c452"/><stop offset=".539" stop-color="#42c453"/><stop offset=".547" stop-color="#43c553"/><stop offset=".555" stop-color="#43c554"/><stop offset=".563" stop-color="#44c554"/><stop offset=".57" stop-color="#44c654"/><stop offset=".578" stop-color="#45c655"/><stop offset=".586" stop-color="#45c655"/><stop offset=".594" stop-color="#46c655"/><stop offset=".602" stop-color="#46c756"/><stop offset=".609" stop-color="#47c756"/><stop offset=".617" stop-color="#47c757"/><stop offset=".625" stop-color="#48c857"/><stop offset=".633" stop-color="#48c857"/><stop offset=".641" stop-color="#49c858"/><stop offset=".648" stop-color="#49c858"/><stop offset=".656" stop-color="#4ac959"/><stop offset=".664" stop-color="#4ac959"/><stop offset=".672" stop-color="#4bc959"/><stop offset=".68" stop-color="#4bca5a"/><stop offset=".688" stop-color="#4cca5a"/><stop offset=".695" stop-color="#4cca5b"/><stop offset=".703" stop-color="#4dcb5b"/><stop offset=".711" stop-color="#4dcb5b"/><stop offset=".719" stop-color="#4ecb5c"/><stop offset=".727" stop-color="#4ecb5c"/><stop offset=".734" stop-color="#4fcc5d"/><stop offset=".742" stop-color="#4fcc5d"/><stop offset=".75" stop-color="#50cc5d"/><stop offset=".758" stop-color="#50cd5e"/><stop offset=".766" stop-color="#51cd5e"/><stop offset=".773" stop-color="#51cd5e"/><stop offset=".781" stop-color="#52ce5f"/><stop offset=".789" stop-color="#52ce5f"/><stop offset=".797" stop-color="#53ce60"/><stop offset=".805" stop-color="#53ce60"/><stop offset=".813" stop-color="#54cf60"/><stop offset=".82" stop-color="#54cf61"/><stop offset=".828" stop-color="#55cf61"/><stop offset=".836" stop-color="#55d062"/><stop offset=".844" stop-color="#56d062"/><stop offset=".852" stop-color="#56d062"/><stop offset=".859" stop-color="#57d163"/><stop offset=".867" stop-color="#57d163"/><stop offset=".875" stop-color="#58d164"/><stop offset=".883" stop-color="#58d164"/><stop offset=".891" stop-color="#59d264"/><stop offset=".898" stop-color="#59d265"/><stop offset=".906" stop-color="#5ad265"/><stop offset=".914" stop-color="#5ad366"/><stop offset=".922" stop-color="#5bd366"/><stop offset=".93" stop-color="#5bd366"/><stop offset=".938" stop-color="#5cd367"/><stop offset=".945" stop-color="#5cd467"/><stop offset=".953" stop-color="#5dd467"/><stop offset=".961" stop-color="#5dd468"/><stop offset=".969" stop-color="#5ed568"/><stop offset=".977" stop-color="#5ed569"/><stop offset=".984" stop-color="#5fd569"/><stop offset=".992" stop-color="#5fd669"/><stop offset="1" stop-color="#60d66a"/></linearGradient><linearGradient id="f" gradientUnits="userSpaceOnUse" x1="0" y1="0" x2="1" y2="0" gradientTransform="matrix(0 -40.55547 40.678 0 23.94 43.723)"><stop offset="0" stop-color="#f9f9f9"/><stop offset=".125" stop-color="#f9f9f9"/><stop offset=".25" stop-color="#fafafa"/><stop offset=".375" stop-color="#fbfbfb"/><stop offset=".5" stop-color="#fcfcfc"/><stop offset=".625" stop-color="#fcfcfc"/><stop offset=".75" stop-color="#fdfdfd"/><stop offset=".875" stop-color="#fefefe"/><stop offset="1" stop-color="#fff"/></linearGradient></defs><path d="M14.875 37.29l.613.362a16.73 16.73 0 0 0 8.528 2.328h.007c9.239 0 16.754-7.492 16.758-16.703a16.559 16.559 0 0 0-4.902-11.816A16.669 16.669 0 0 0 24.03 6.562c-9.246 0-16.761 7.493-16.765 16.704a16.585 16.585 0 0 0 2.562 8.886l.399.633L8.53 38.95zM3.691 43.722l2.86-10.414a20.048 20.048 0 0 1-2.692-10.047C3.863 12.184 12.91 3.168 24.023 3.168c5.395.004 10.457 2.094 14.262 5.894a19.94 19.94 0 0 1 5.903 14.215c-.004 11.082-9.051 20.098-20.165 20.098h-.007c-3.368 0-6.68-.84-9.637-2.445zm0 0" fill="#fff"/><g clip-path="url(#a)"><g clip-path="url(#b)"><path d="M4.39 43.02h39.098V3.87H4.395zm0 0" fill="url(#c)"/></g></g><g clip-path="url(#d)"><g clip-path="url(#e)"><path d="M3.691 43.723h40.496V3.168H3.691zm0 0" fill="url(#f)"/></g></g><path d="M18.984 14.863c-.379-.836-.773-.855-1.132-.87-.293-.013-.63-.013-.965-.013-.336 0-.883.13-1.344.63-.461.503-1.766 1.718-1.766 4.19 0 2.47 1.805 4.86 2.059 5.196.25.332 3.484 5.567 8.605 7.582 4.258 1.672 5.122 1.34 6.047 1.254.922-.082 2.98-1.215 3.399-2.387.422-1.172.422-2.18.297-2.386-.13-.211-.465-.336-.97-.586-.503-.254-2.98-1.47-3.44-1.637-.462-.168-.797-.25-1.133.254-.336.5-1.301 1.633-1.598 1.969-.293.336-.586.375-1.09.125-.504-.254-2.125-.782-4.05-2.493-1.5-1.332-2.508-2.976-2.805-3.48-.293-.5-.032-.773.222-1.023.227-.227.504-.586.758-.88.25-.292.332-.503.5-.84.168-.335.086-.628-.039-.878-.129-.25-1.105-2.735-1.555-3.727" fill-rule="evenodd" fill="#fff"/></svg>
